<svg class="phone" xmlns="http://www.w3.org/2000/svg" width="20" height="20" viewBox="0 0 20 20" aria-labelledby="title">
    <title id="title">Phone</title>
    <g>
      <g>
        <path class="st0" fill="#ffffff" d="M19.6,15.8l-3.1-3.1c-0.6-0.6-1.6-0.6-2.3,0l-1.6,1.6c-0.1-0.1-0.2-0.1-0.3-0.2c-1-0.5-2.3-1.3-3.7-2.7
          C7.2,10,6.4,8.6,5.9,7.7C5.8,7.6,5.8,7.5,5.7,7.4l1-1l0.5-0.5c0.6-0.6,0.7-1.7,0-2.3L4.2,0.4c-0.6-0.6-1.6-0.6-2.3,0L1.1,1.4l0,0
          C0.8,1.8,0.6,2.2,0.4,2.7C0.2,3.1,0.1,3.5,0.1,3.9c-0.4,3.4,1.1,6.5,5.3,10.7c5.8,5.8,10.5,5.4,10.7,5.3c0.4-0.1,0.9-0.2,1.3-0.3
          c0.5-0.2,0.9-0.4,1.3-0.7l0,0l0.9-0.9C20.1,17.4,20.2,16.4,19.6,15.8L19.6,15.8z M19.6,15.8"/>
      </g>
    </g>
</svg>