<svg class="wisdomMail" xmlns="http://www.w3.org/2000/svg" width="20" height="20" viewBox="0 0 20 20" aria-labelledby="title">
    <title id="title">Email</title>
    <g>
      <path class="st0" fill="#ffffff" d="M18.6,18.2"/>
      <path class="st0" fill="#ffffff" d="M1.4,17.7c-0.2,0-0.4,0-0.5-0.1l5.3-5.3c0,0,0.1,0.1,0.1,0.1c0.5,0.3,0.8,0.6,1.1,0.8c0.3,0.2,0.7,0.4,1.2,0.6
        c0.5,0.2,1,0.3,1.4,0.3c0.5,0,1-0.1,1.5-0.3c0.5-0.2,0.9-0.4,1.2-0.6c0.3-0.2,0.6-0.4,1.1-0.8l0.1-0.1l5.3,5.3
        c-0.2,0.1-0.3,0.1-0.5,0.1H1.4z"/>
      <path class="st0" fill="#ffffff" d="M0.7,8.1"/>
      <path class="st0" fill="#ffffff" d="M0,8.1c0.2,0.1,0.3,0.3,0.5,0.4c1.4,1,2.6,1.8,3.6,2.5L0,15V8.1z"/>
      <path class="st0" fill="#ffffff" d="M19.3,8.1"/>
      <path class="st0" fill="#ffffff" d="M15.9,10.9c1-0.7,2.2-1.5,3.6-2.5c0.2-0.1,0.3-0.2,0.5-0.4V15L15.9,10.9z"/>
      <path class="st0" fill="#ffffff" d="M18.6,1.8"/>
      <path class="st0" fill="#ffffff" d="M10,11.8c-0.1,0-0.3,0-0.4-0.1c-0.2-0.1-0.4-0.2-0.6-0.3c-0.2-0.1-0.4-0.3-0.6-0.4c-0.2-0.1-0.4-0.3-0.6-0.4
        l-0.5-0.4C6.9,10,6.5,9.8,6.1,9.4C5.5,9.1,4.9,8.6,4.2,8.1C2.9,7.2,2.1,6.7,1.8,6.5C1.4,6.2,1,5.8,0.6,5.2C0.2,4.7,0,4.3,0,3.9
        C0,3.4,0.1,3,0.4,2.7c0.2-0.3,0.6-0.4,1-0.4h17.1c0.4,0,0.7,0.1,1,0.4c0.3,0.3,0.4,0.6,0.4,1c0,0.5-0.2,1-0.5,1.5
        c-0.3,0.5-0.8,1-1.3,1.3c0,0-5.2,3.6-5.4,3.8l-0.2,0.1c-0.1,0.1-0.2,0.1-0.3,0.2c-0.2,0.2-0.5,0.3-0.6,0.4
        c-0.2,0.1-0.3,0.2-0.6,0.4c-0.2,0.1-0.4,0.2-0.6,0.3C10.3,11.8,10.1,11.8,10,11.8L10,11.8z"/>
    </g>
</svg>